<mxfile host="Electron" agent="Mozilla/5.0 (Windows NT 10.0; Win64; x64) AppleWebKit/537.36 (KHTML, like Gecko) draw.io/24.7.17 Chrome/128.0.6613.36 Electron/32.0.1 Safari/537.36" version="24.7.17">
  <diagram name="PÃ¡gina-1" id="nuRWEmFwOqqs6exoIcC6">
    <mxGraphModel dx="733" dy="443" grid="1" gridSize="10" guides="1" tooltips="1" connect="1" arrows="1" fold="1" page="1" pageScale="1" pageWidth="827" pageHeight="1169" math="0" shadow="0">
      <root>
        <mxCell id="0" />
        <mxCell id="1" parent="0" />
        <mxCell id="oNiTg75NSBp_3wvNN7zK-2" value="Llega Corredor&lt;div&gt;a Fila 1&lt;/div&gt;" style="text;html=1;align=center;verticalAlign=middle;resizable=0;points=[];autosize=1;strokeColor=none;fillColor=none;" vertex="1" parent="1">
          <mxGeometry x="20" y="133" width="100" height="40" as="geometry" />
        </mxCell>
        <mxCell id="oNiTg75NSBp_3wvNN7zK-3" value="Llega Corredor&lt;div&gt;a Fila 2&lt;/div&gt;" style="text;html=1;align=center;verticalAlign=middle;resizable=0;points=[];autosize=1;strokeColor=none;fillColor=none;" vertex="1" parent="1">
          <mxGeometry x="20" y="315" width="100" height="40" as="geometry" />
        </mxCell>
        <mxCell id="oNiTg75NSBp_3wvNN7zK-4" value="" style="endArrow=none;html=1;rounded=0;" edge="1" parent="1">
          <mxGeometry width="50" height="50" relative="1" as="geometry">
            <mxPoint x="80" y="280" as="sourcePoint" />
            <mxPoint x="80" y="200" as="targetPoint" />
          </mxGeometry>
        </mxCell>
        <mxCell id="oNiTg75NSBp_3wvNN7zK-5" value="" style="endArrow=classic;html=1;rounded=0;" edge="1" parent="1">
          <mxGeometry width="50" height="50" relative="1" as="geometry">
            <mxPoint x="80" y="240" as="sourcePoint" />
            <mxPoint x="140" y="240" as="targetPoint" />
          </mxGeometry>
        </mxCell>
        <mxCell id="oNiTg75NSBp_3wvNN7zK-6" value="" style="endArrow=none;html=1;rounded=0;" edge="1" parent="1">
          <mxGeometry width="50" height="50" relative="1" as="geometry">
            <mxPoint x="80" y="440" as="sourcePoint" />
            <mxPoint x="80" y="360" as="targetPoint" />
          </mxGeometry>
        </mxCell>
        <mxCell id="oNiTg75NSBp_3wvNN7zK-7" value="" style="endArrow=classic;html=1;rounded=0;" edge="1" parent="1">
          <mxGeometry width="50" height="50" relative="1" as="geometry">
            <mxPoint x="80" y="400" as="sourcePoint" />
            <mxPoint x="140" y="400" as="targetPoint" />
          </mxGeometry>
        </mxCell>
        <mxCell id="oNiTg75NSBp_3wvNN7zK-8" value="" style="ellipse;whiteSpace=wrap;html=1;aspect=fixed;" vertex="1" parent="1">
          <mxGeometry x="140.0000000000001" y="220" width="40" height="40" as="geometry" />
        </mxCell>
        <mxCell id="oNiTg75NSBp_3wvNN7zK-9" value="" style="endArrow=none;html=1;rounded=0;" edge="1" parent="1">
          <mxGeometry width="50" height="50" relative="1" as="geometry">
            <mxPoint x="240" y="370" as="sourcePoint" />
            <mxPoint x="240.0000000000001" y="200" as="targetPoint" />
          </mxGeometry>
        </mxCell>
        <mxCell id="oNiTg75NSBp_3wvNN7zK-11" value="" style="endArrow=classic;html=1;rounded=0;" edge="1" parent="1">
          <mxGeometry width="50" height="50" relative="1" as="geometry">
            <mxPoint x="180.0000000000001" y="239.57999999999998" as="sourcePoint" />
            <mxPoint x="240.0000000000001" y="240" as="targetPoint" />
          </mxGeometry>
        </mxCell>
        <mxCell id="oNiTg75NSBp_3wvNN7zK-12" value="" style="ellipse;whiteSpace=wrap;html=1;aspect=fixed;" vertex="1" parent="1">
          <mxGeometry x="140.0000000000001" y="380" width="40" height="40" as="geometry" />
        </mxCell>
        <mxCell id="oNiTg75NSBp_3wvNN7zK-13" value="" style="endArrow=none;html=1;rounded=0;" edge="1" parent="1">
          <mxGeometry width="50" height="50" relative="1" as="geometry">
            <mxPoint x="240.0000000000001" y="440" as="sourcePoint" />
            <mxPoint x="240.0000000000001" y="360" as="targetPoint" />
          </mxGeometry>
        </mxCell>
        <mxCell id="oNiTg75NSBp_3wvNN7zK-15" value="" style="endArrow=classic;html=1;rounded=0;" edge="1" parent="1">
          <mxGeometry width="50" height="50" relative="1" as="geometry">
            <mxPoint x="180.0000000000001" y="399.58" as="sourcePoint" />
            <mxPoint x="240.0000000000001" y="400" as="targetPoint" />
          </mxGeometry>
        </mxCell>
        <mxCell id="oNiTg75NSBp_3wvNN7zK-16" value="Esperando en Fila 1" style="text;html=1;align=center;verticalAlign=middle;resizable=0;points=[];autosize=1;strokeColor=none;fillColor=none;" vertex="1" parent="1">
          <mxGeometry x="90" y="260" width="130" height="30" as="geometry" />
        </mxCell>
        <mxCell id="oNiTg75NSBp_3wvNN7zK-17" value="Esperando en Fila 2" style="text;html=1;align=center;verticalAlign=middle;resizable=0;points=[];autosize=1;strokeColor=none;fillColor=none;" vertex="1" parent="1">
          <mxGeometry x="90" y="420" width="130" height="30" as="geometry" />
        </mxCell>
        <mxCell id="oNiTg75NSBp_3wvNN7zK-18" value="Inicia Carrera" style="text;html=1;align=center;verticalAlign=middle;resizable=0;points=[];autosize=1;strokeColor=none;fillColor=none;" vertex="1" parent="1">
          <mxGeometry x="200" y="158" width="100" height="30" as="geometry" />
        </mxCell>
        <mxCell id="oNiTg75NSBp_3wvNN7zK-19" value="" style="endArrow=classic;html=1;rounded=0;" edge="1" parent="1">
          <mxGeometry width="50" height="50" relative="1" as="geometry">
            <mxPoint x="250.0000000000001" y="320" as="sourcePoint" />
            <mxPoint x="310.0000000000001" y="320.42" as="targetPoint" />
          </mxGeometry>
        </mxCell>
        <mxCell id="oNiTg75NSBp_3wvNN7zK-20" value="" style="ellipse;whiteSpace=wrap;html=1;aspect=fixed;" vertex="1" parent="1">
          <mxGeometry x="320.0000000000001" y="300" width="40" height="40" as="geometry" />
        </mxCell>
        <mxCell id="oNiTg75NSBp_3wvNN7zK-21" value="" style="endArrow=none;html=1;rounded=0;" edge="1" parent="1">
          <mxGeometry width="50" height="50" relative="1" as="geometry">
            <mxPoint x="420.0000000000001" y="268" as="sourcePoint" />
            <mxPoint x="420.0000000000001" y="188" as="targetPoint" />
          </mxGeometry>
        </mxCell>
        <mxCell id="oNiTg75NSBp_3wvNN7zK-22" value="" style="endArrow=classic;html=1;rounded=0;" edge="1" parent="1">
          <mxGeometry width="50" height="50" relative="1" as="geometry">
            <mxPoint x="420.0000000000001" y="228" as="sourcePoint" />
            <mxPoint x="480.0000000000001" y="228" as="targetPoint" />
          </mxGeometry>
        </mxCell>
        <mxCell id="oNiTg75NSBp_3wvNN7zK-23" value="" style="endArrow=classic;html=1;rounded=0;" edge="1" parent="1">
          <mxGeometry width="50" height="50" relative="1" as="geometry">
            <mxPoint x="360.0000000000001" y="319.58" as="sourcePoint" />
            <mxPoint x="410" y="230" as="targetPoint" />
          </mxGeometry>
        </mxCell>
        <mxCell id="oNiTg75NSBp_3wvNN7zK-24" value="Corriendo&lt;div&gt;en Etapa 1&lt;/div&gt;" style="text;html=1;align=center;verticalAlign=middle;resizable=0;points=[];autosize=1;strokeColor=none;fillColor=none;" vertex="1" parent="1">
          <mxGeometry x="300" y="355" width="80" height="40" as="geometry" />
        </mxCell>
        <mxCell id="oNiTg75NSBp_3wvNN7zK-25" value="" style="endArrow=classic;html=1;rounded=0;exitX=1;exitY=0.5;exitDx=0;exitDy=0;" edge="1" parent="1" source="oNiTg75NSBp_3wvNN7zK-20">
          <mxGeometry width="50" height="50" relative="1" as="geometry">
            <mxPoint x="370.0000000000001" y="329.58" as="sourcePoint" />
            <mxPoint x="410" y="430" as="targetPoint" />
          </mxGeometry>
        </mxCell>
        <mxCell id="oNiTg75NSBp_3wvNN7zK-26" value="" style="endArrow=none;html=1;rounded=0;" edge="1" parent="1">
          <mxGeometry width="50" height="50" relative="1" as="geometry">
            <mxPoint x="420" y="490" as="sourcePoint" />
            <mxPoint x="420" y="410" as="targetPoint" />
          </mxGeometry>
        </mxCell>
        <mxCell id="oNiTg75NSBp_3wvNN7zK-27" value="" style="endArrow=classic;html=1;rounded=0;" edge="1" parent="1">
          <mxGeometry width="50" height="50" relative="1" as="geometry">
            <mxPoint x="420" y="450" as="sourcePoint" />
            <mxPoint x="480" y="450" as="targetPoint" />
          </mxGeometry>
        </mxCell>
        <mxCell id="oNiTg75NSBp_3wvNN7zK-28" value="" style="ellipse;whiteSpace=wrap;html=1;aspect=fixed;" vertex="1" parent="1">
          <mxGeometry x="480.0000000000001" y="208" width="40" height="40" as="geometry" />
        </mxCell>
        <mxCell id="oNiTg75NSBp_3wvNN7zK-29" value="" style="endArrow=none;html=1;rounded=0;" edge="1" parent="1">
          <mxGeometry width="50" height="50" relative="1" as="geometry">
            <mxPoint x="580.0000000000001" y="268" as="sourcePoint" />
            <mxPoint x="580.0000000000001" y="188" as="targetPoint" />
          </mxGeometry>
        </mxCell>
        <mxCell id="oNiTg75NSBp_3wvNN7zK-30" value="" style="endArrow=classic;html=1;rounded=0;" edge="1" parent="1" target="oNiTg75NSBp_3wvNN7zK-40">
          <mxGeometry width="50" height="50" relative="1" as="geometry">
            <mxPoint x="580.0000000000001" y="228" as="sourcePoint" />
            <mxPoint x="640.0000000000001" y="228" as="targetPoint" />
          </mxGeometry>
        </mxCell>
        <mxCell id="oNiTg75NSBp_3wvNN7zK-31" value="" style="endArrow=classic;html=1;rounded=0;" edge="1" parent="1">
          <mxGeometry width="50" height="50" relative="1" as="geometry">
            <mxPoint x="520.0000000000001" y="227.57999999999998" as="sourcePoint" />
            <mxPoint x="580.0000000000001" y="228" as="targetPoint" />
          </mxGeometry>
        </mxCell>
        <mxCell id="oNiTg75NSBp_3wvNN7zK-32" value="" style="ellipse;whiteSpace=wrap;html=1;aspect=fixed;" vertex="1" parent="1">
          <mxGeometry x="480.0000000000001" y="430" width="40" height="40" as="geometry" />
        </mxCell>
        <mxCell id="oNiTg75NSBp_3wvNN7zK-33" value="" style="endArrow=none;html=1;rounded=0;" edge="1" parent="1">
          <mxGeometry width="50" height="50" relative="1" as="geometry">
            <mxPoint x="580.0000000000001" y="490" as="sourcePoint" />
            <mxPoint x="580.0000000000001" y="410" as="targetPoint" />
          </mxGeometry>
        </mxCell>
        <mxCell id="oNiTg75NSBp_3wvNN7zK-34" value="" style="endArrow=classic;html=1;rounded=0;" edge="1" parent="1">
          <mxGeometry width="50" height="50" relative="1" as="geometry">
            <mxPoint x="580.0000000000001" y="450" as="sourcePoint" />
            <mxPoint x="640" y="330" as="targetPoint" />
          </mxGeometry>
        </mxCell>
        <mxCell id="oNiTg75NSBp_3wvNN7zK-35" value="" style="endArrow=classic;html=1;rounded=0;" edge="1" parent="1">
          <mxGeometry width="50" height="50" relative="1" as="geometry">
            <mxPoint x="520.0000000000001" y="449.58" as="sourcePoint" />
            <mxPoint x="580.0000000000001" y="450" as="targetPoint" />
          </mxGeometry>
        </mxCell>
        <mxCell id="oNiTg75NSBp_3wvNN7zK-36" value="Llega a&lt;div&gt;Circuito A&lt;/div&gt;" style="text;html=1;align=center;verticalAlign=middle;resizable=0;points=[];autosize=1;strokeColor=none;fillColor=none;" vertex="1" parent="1">
          <mxGeometry x="414" y="148" width="70" height="40" as="geometry" />
        </mxCell>
        <mxCell id="oNiTg75NSBp_3wvNN7zK-37" value="Llega a&lt;div&gt;Circuito B&lt;/div&gt;" style="text;html=1;align=center;verticalAlign=middle;resizable=0;points=[];autosize=1;strokeColor=none;fillColor=none;" vertex="1" parent="1">
          <mxGeometry x="414" y="370" width="80" height="40" as="geometry" />
        </mxCell>
        <mxCell id="oNiTg75NSBp_3wvNN7zK-38" value="Corriendo Etapa 2 por A" style="text;html=1;align=center;verticalAlign=middle;resizable=0;points=[];autosize=1;strokeColor=none;fillColor=none;" vertex="1" parent="1">
          <mxGeometry x="425" y="258" width="150" height="30" as="geometry" />
        </mxCell>
        <mxCell id="oNiTg75NSBp_3wvNN7zK-39" value="Fin de&lt;div&gt;Circuito&lt;/div&gt;" style="text;html=1;align=center;verticalAlign=middle;resizable=0;points=[];autosize=1;strokeColor=none;fillColor=none;" vertex="1" parent="1">
          <mxGeometry x="570" y="148" width="60" height="40" as="geometry" />
        </mxCell>
        <mxCell id="oNiTg75NSBp_3wvNN7zK-40" value="" style="ellipse;whiteSpace=wrap;html=1;aspect=fixed;" vertex="1" parent="1">
          <mxGeometry x="640.0000000000001" y="300" width="40" height="40" as="geometry" />
        </mxCell>
        <mxCell id="oNiTg75NSBp_3wvNN7zK-41" value="" style="endArrow=none;html=1;rounded=0;" edge="1" parent="1">
          <mxGeometry width="50" height="50" relative="1" as="geometry">
            <mxPoint x="740.0000000000001" y="360" as="sourcePoint" />
            <mxPoint x="740.0000000000001" y="280" as="targetPoint" />
          </mxGeometry>
        </mxCell>
        <mxCell id="oNiTg75NSBp_3wvNN7zK-43" value="" style="endArrow=classic;html=1;rounded=0;" edge="1" parent="1">
          <mxGeometry width="50" height="50" relative="1" as="geometry">
            <mxPoint x="680.0000000000001" y="319.58" as="sourcePoint" />
            <mxPoint x="740.0000000000001" y="320" as="targetPoint" />
          </mxGeometry>
        </mxCell>
        <mxCell id="oNiTg75NSBp_3wvNN7zK-44" value="Corriendo&amp;nbsp;&lt;div&gt;Etapa 3&amp;nbsp;&lt;/div&gt;" style="text;html=1;align=center;verticalAlign=middle;resizable=0;points=[];autosize=1;strokeColor=none;fillColor=none;" vertex="1" parent="1">
          <mxGeometry x="620" y="335" width="80" height="40" as="geometry" />
        </mxCell>
        <mxCell id="oNiTg75NSBp_3wvNN7zK-45" value="Termina Carrera&lt;div&gt;por C A&lt;/div&gt;" style="text;html=1;align=center;verticalAlign=middle;resizable=0;points=[];autosize=1;strokeColor=none;fillColor=none;" vertex="1" parent="1">
          <mxGeometry x="695" y="235" width="110" height="40" as="geometry" />
        </mxCell>
        <mxCell id="oNiTg75NSBp_3wvNN7zK-46" value="" style="endArrow=classic;html=1;rounded=0;" edge="1" parent="1">
          <mxGeometry width="50" height="50" relative="1" as="geometry">
            <mxPoint x="250.0000000000001" y="334.5" as="sourcePoint" />
            <mxPoint x="310.0000000000001" y="334.92" as="targetPoint" />
          </mxGeometry>
        </mxCell>
        <mxCell id="oNiTg75NSBp_3wvNN7zK-47" style="edgeStyle=orthogonalEdgeStyle;rounded=0;orthogonalLoop=1;jettySize=auto;html=1;curved=1;" edge="1" source="oNiTg75NSBp_3wvNN7zK-49" parent="1">
          <mxGeometry relative="1" as="geometry">
            <mxPoint x="414" y="430" as="targetPoint" />
          </mxGeometry>
        </mxCell>
        <mxCell id="oNiTg75NSBp_3wvNN7zK-48" style="edgeStyle=orthogonalEdgeStyle;rounded=0;orthogonalLoop=1;jettySize=auto;html=1;curved=1;endArrow=none;endFill=0;startArrow=classic;startFill=1;" edge="1" source="oNiTg75NSBp_3wvNN7zK-49" parent="1">
          <mxGeometry relative="1" as="geometry">
            <mxPoint x="594" y="430" as="targetPoint" />
          </mxGeometry>
        </mxCell>
        <mxCell id="oNiTg75NSBp_3wvNN7zK-49" value="OO" style="ellipse;whiteSpace=wrap;html=1;aspect=fixed;" vertex="1" parent="1">
          <mxGeometry x="484" y="310" width="40" height="40" as="geometry" />
        </mxCell>
        <mxCell id="oNiTg75NSBp_3wvNN7zK-50" value="Circuito Habilitado" style="text;html=1;align=center;verticalAlign=middle;resizable=0;points=[];autosize=1;strokeColor=none;fillColor=none;" vertex="1" parent="1">
          <mxGeometry x="444" y="288" width="120" height="30" as="geometry" />
        </mxCell>
        <mxCell id="oNiTg75NSBp_3wvNN7zK-51" value="" style="endArrow=classic;html=1;rounded=0;" edge="1" parent="1">
          <mxGeometry width="50" height="50" relative="1" as="geometry">
            <mxPoint x="420" y="460" as="sourcePoint" />
            <mxPoint x="480" y="460" as="targetPoint" />
          </mxGeometry>
        </mxCell>
        <mxCell id="oNiTg75NSBp_3wvNN7zK-52" value="" style="endArrow=classic;html=1;rounded=0;" edge="1" parent="1">
          <mxGeometry width="50" height="50" relative="1" as="geometry">
            <mxPoint x="520" y="460" as="sourcePoint" />
            <mxPoint x="580" y="460" as="targetPoint" />
          </mxGeometry>
        </mxCell>
        <mxCell id="oNiTg75NSBp_3wvNN7zK-53" value="" style="endArrow=classic;html=1;rounded=0;" edge="1" parent="1" target="oNiTg75NSBp_3wvNN7zK-40">
          <mxGeometry width="50" height="50" relative="1" as="geometry">
            <mxPoint x="580" y="460" as="sourcePoint" />
            <mxPoint x="640" y="460" as="targetPoint" />
          </mxGeometry>
        </mxCell>
        <mxCell id="oNiTg75NSBp_3wvNN7zK-54" value="Fin&lt;div&gt;Circuito B&lt;/div&gt;" style="text;html=1;align=center;verticalAlign=middle;resizable=0;points=[];autosize=1;strokeColor=none;fillColor=none;" vertex="1" parent="1">
          <mxGeometry x="510" y="370" width="80" height="40" as="geometry" />
        </mxCell>
        <mxCell id="oNiTg75NSBp_3wvNN7zK-55" value="Corriendo Etapa 2 por B" style="text;html=1;align=center;verticalAlign=middle;resizable=0;points=[];autosize=1;strokeColor=none;fillColor=none;" vertex="1" parent="1">
          <mxGeometry x="420" y="470" width="150" height="30" as="geometry" />
        </mxCell>
      </root>
    </mxGraphModel>
  </diagram>
</mxfile>
